<?xml version="1.0" encoding="iso-8859-1"?>
<!-- Generator: Adobe Illustrator 18.0.0, SVG Export Plug-In . SVG Version: 6.00 Build 0)  -->
<!DOCTYPE svg PUBLIC "-//W3C//DTD SVG 1.1//EN" "http://www.w3.org/Graphics/SVG/1.1/DTD/svg11.dtd">
<svg version="1.1" id="_x31_" xmlns="http://www.w3.org/2000/svg" xmlns:xlink="http://www.w3.org/1999/xlink" x="0px" y="0px"
	 viewBox="0 0 512 512" style="enable-background:new 0 0 512 512;" xml:space="preserve">
<g>
	<rect style="fill:#F6B597;" width="512" height="512"/>
	<path style="opacity:0.1;fill:#040000;" d="M434.995,188.057h-22.466l-19.067-19.067c-2.4-6.944-8.947-12.011-16.63-12.011h-168.09
		l-26.522-45.005h-70.605c-12.493,0-22.784,7.936-22.784,17.665v251.75c0,0.819,0.051,1.638,0.205,2.457l-0.205,0.716
		c-0.256,0.717-0.512,1.434-0.614,2.151l10.496,10.495l2.816,2.816L213.504,512H512V265.061L434.995,188.057z"/>
	<g>
		<g>
			<path style="fill:#4AAEAD;" d="M394.496,174.694v206.695c0,1.535-0.205,2.97-0.563,4.402c-0.051,0-0.051,0.051-0.051,0.103
				c-0.717,2.714-2.099,5.223-4.045,7.27c-3.021,3.431-7.424,5.684-12.339,5.837h-0.051c-0.205,0.051-0.41,0.051-0.614,0.051
				H106.496c-2.816,0-5.427-0.666-7.783-1.844c-3.481-1.74-6.297-4.556-8.038-8.038c-0.819-1.639-1.382-3.431-1.638-5.325
				c-0.154-0.82-0.205-1.639-0.205-2.457V174.694c0-9.727,7.987-17.715,17.664-17.715h270.336
				C386.509,156.979,394.496,164.966,394.496,174.694z"/>
			<path style="fill:#4AAEAD;" d="M394.496,174.694v206.695c0,1.535-0.205,2.97-0.563,4.402c-0.051,0-0.051,0.051-0.051,0.103
				c-0.717,2.714-2.099,5.223-4.045,7.27c-3.021,3.431-7.424,5.684-12.339,5.837h-0.051c-0.205,0.051-0.41,0.051-0.614,0.051
				H106.496c-2.816,0-5.427-0.666-7.783-1.844c-3.481-1.74-6.297-4.556-8.038-8.038c-0.819-1.639-1.382-3.431-1.638-5.325
				c-0.154-0.82-0.205-1.639-0.205-2.457V174.694c0-9.727,7.987-17.715,17.664-17.715h270.336
				C386.509,156.979,394.496,164.966,394.496,174.694z"/>
			<path style="fill:#4AAEAD;" d="M241.562,212.634H111.616c-2.407,0-4.659-0.307-6.861-0.871
				c-9.165-2.201-15.923-8.909-15.923-16.794v-65.33c0-9.729,10.291-17.665,22.784-17.665h70.605l26.522,45.005l9.421,15.923
				l8.909,15.156L241.562,212.634z"/>
			<path style="fill:#FFFFFF;" d="M106.511,383.139c-0.942,0-1.767-0.825-1.767-1.767V174.67c0-0.942,0.825-1.767,1.767-1.767
				h270.303c0.942,0,1.767,0.825,1.767,1.767v206.702c0,0.942-0.825,1.767-1.767,1.767H106.511z"/>
			<path style="fill:#52BEBC;" d="M450.355,203.417c0.051,0.051,0,0.051,0,0.103l-1.434,4.71l-7.322,23.706l-7.833,25.344
				l-7.322,23.654l-7.834,25.345l-7.27,23.705l-16.896,54.579c-0.154,0.41-0.358,0.819-0.512,1.229
				c-0.051,0-0.051,0.051-0.051,0.103c-0.051,0.051-0.102,0.102-0.102,0.102c0,0.051-0.051,0.154-0.103,0.205
				c-2.867,5.785-9.216,10.7-15.974,12.749c-0.102,0-0.153,0.051-0.205,0.051h-0.051c-2.253,0.665-4.454,1.024-6.656,1.024H100.506
				c-8.909,0-14.08-5.836-12.288-13.311c0.102-0.718,0.359-1.434,0.614-2.151l0.205-0.716l15.718-50.842l37.171-120.37l2.816-9.114
				c3.277-8.5,13.927-15.463,23.654-15.463h270.285C448.358,188.057,453.632,194.969,450.355,203.417z"/>
			<polygon style="opacity:0.5;fill:#A7D7C7;" points="418.631,306.288 411.317,329.979 301.73,329.979 301.73,306.288 			"/>
			<polygon style="opacity:0.5;fill:#A7D7C7;" points="433.772,257.263 426.458,280.954 318.425,280.954 318.425,257.263 			"/>
		</g>
		<path style="opacity:0.06;fill:#040000;" d="M450.355,203.417c0.051,0.051,0,0.051,0,0.103l-1.434,4.71l-7.322,23.706
			l-7.833,25.344l-7.322,23.654l-7.834,25.345l-7.27,23.705l-16.896,54.579c-0.154,0.41-0.358,0.819-0.512,1.229
			c-0.051,0-0.051,0.051-0.051,0.103c-0.051,0.051-0.102,0.102-0.102,0.102c0,0.051-0.051,0.154-0.103,0.205
			c-0.717,2.611-2.048,5.017-3.84,6.962c-3.021,3.38-7.322,5.53-12.134,5.786c-0.102,0-0.153,0.051-0.205,0.051h-0.051
			c-2.253,0.665-4.454,1.024-6.656,1.024H125.542l0.973-0.973l15.923-15.924l195.072-195.071l15.155-15.156l15.923-15.923h8.243
			c9.677,0,17.664,7.988,17.664,17.715v13.364h44.185C448.358,188.057,453.632,194.969,450.355,203.417z"/>
	</g>
</g>
</svg>
