<?xml version="1.0" encoding="iso-8859-1"?>
<!-- Generator: Adobe Illustrator 18.0.0, SVG Export Plug-In . SVG Version: 6.00 Build 0)  -->
<!DOCTYPE svg PUBLIC "-//W3C//DTD SVG 1.1//EN" "http://www.w3.org/Graphics/SVG/1.1/DTD/svg11.dtd">
<svg version="1.1" id="_x33_" xmlns="http://www.w3.org/2000/svg" xmlns:xlink="http://www.w3.org/1999/xlink" x="0px" y="0px"
	 viewBox="0 0 512 512" style="enable-background:new 0 0 512 512;" xml:space="preserve">
<g>
	<rect style="fill:#F7BB9D;" width="512" height="512"/>
	<path style="opacity:0.1;fill:#040000;" d="M512,202.291V512H227.174L125.133,409.959l-16.435-16.436l-14.285-14.284
		c-0.973-5.12,0.41-10.342,4.147-14.08l139.111-143.054l6.605-6.706c0,0,0,0,0-0.051c0.154-0.717,0.512-1.434,1.075-1.997
		l5.171-4.403l0.153-0.154l1.434-1.229l24.678-21.044l12.595-11.879l2.56-2.405c0.768-0.769,1.997-0.769,2.765,0l6.503,6.503
		c-0.973-2.818-1.69-5.684-1.894-8.705c-0.205-2.663-0.153-5.375,0.205-8.038c0.768-5.223,2.765-10.24,5.376-14.849
		c3.021-5.376,7.27-10.035,11.878-14.183c9.268-8.191,20.378-14.08,31.795-18.585c7.731-3.021,15.309-5.274,22.477-7.015
		c4.147-1.024,8.09-1.894,11.878-2.56c1.894-0.359,3.737-0.665,5.478-0.921c1.639-0.256,3.379-0.513,5.171-0.768
		c2.202-0.308,4.25-0.564,6.195-0.717l0.051-0.051c0.256,0,0.512-0.051,0.768-0.051c0.563-0.051,1.126-0.103,1.638-0.154h0.461
		c0.512-0.051,1.024-0.103,1.485-0.103c0.307,0,0.666-0.051,0.973-0.051c0.307-0.05,0.614-0.103,0.922-0.103h0.461
		c1.075-0.05,2.048-0.102,2.919-0.102c0.512,0,0.973,0,1.485,0.052h0.614l5.12,5.12l0.256,0.255L512,202.291z"/>
	<g>
		<g>
			<path style="fill:#FDFEFE;" d="M388.25,169.011c-0.358,1.485-0.819,2.97-1.331,4.404c-0.512,1.383-1.178,2.713-1.792,4.095
				c-0.614,1.383-1.331,2.714-2.099,4.045c-1.536,2.56-3.277,5.069-5.273,7.323v0.05h-0.051c0,0.052,0,0.052,0,0.052
				c-0.051,0.05-0.102,0.101-0.153,0.153c-0.154,0.205-0.205,0.256-0.205,0.256c-0.87,0.973-1.792,1.894-2.662,2.765
				c-8.295,8.089-19.661,12.646-31.13,13.056c-0.819,0.051-1.638,0.051-2.407,0.051c-1.382-0.051-2.713-0.103-4.045-0.256
				c-4.454-0.461-8.806-1.536-12.902-3.278c-4.659-1.842-8.96-4.505-12.698-7.885c-0.563-0.511-1.126-1.022-1.638-1.535
				c-3.84-3.84-6.81-8.5-8.653-13.567c-0.973-2.818-1.69-5.684-1.894-8.705c-0.205-2.663-0.153-5.375,0.205-8.038
				c0.768-5.223,2.765-10.24,5.376-14.849c3.021-5.376,7.27-10.035,11.878-14.183c9.268-8.191,20.378-14.08,31.795-18.585
				c-0.256,1.689-0.563,3.43-0.819,5.171c-0.358,2.099-0.614,4.198-0.41,6.298c0.051,1.28,0.307,2.611,0.87,3.84
				c0.461,1.177,1.178,2.304,2.048,3.276c0.153,0.205,0.41,0.461,0.614,0.666c0.87,0.819,1.792,1.485,2.714,1.894
				c0.871,0.461,1.741,0.769,2.611,0.921c0.205,0.103,0.461,0.154,0.768,0.154c1.997,0.359,4.096,0.154,6.144-0.204
				c0.87-0.103,1.741-0.308,2.611-0.513c0.256-0.051,0.461-0.102,0.716-0.154c0.922-0.205,1.844-0.41,2.765-0.614
				c0.666-0.155,1.331-0.256,1.997-0.41c0.307-0.051,0.563-0.103,0.871-0.154c0.409-0.051,0.768-0.103,1.126-0.103
				c0.666-0.051,1.28-0.102,1.894-0.102c0.41,0,0.819,0,1.178,0.051c0.307,0,0.563,0.051,0.819,0.103
				c0.87,0.051,1.69,0.256,2.509,0.563c0.512,0.205,0.973,0.41,1.434,0.666c0.819,0.41,1.639,1.024,2.406,1.741
				c0.205,0.205,0.461,0.409,0.614,0.665c0.256,0.256,0.461,0.564,0.666,0.82c0.256,0.306,0.461,0.614,0.717,0.972
				c0.666,1.075,1.075,2.253,1.28,3.481c0.103,0.461,0.154,0.921,0.205,1.382c0.819,7.834-4.506,17.049,1.024,23.808v0.051
				C388.045,168.755,388.147,168.909,388.25,169.011z"/>
			<path style="fill:#8CCFD1;" d="M417.894,104.243v0.257c0,0.306-0.051,0.768-0.256,1.28c-0.153,0.511-0.409,0.921-0.717,1.433
				c0,0.051-0.051,0.103-0.102,0.205c-0.205,0.359-0.41,0.665-0.563,0.972c-0.154,0.205-0.256,0.41-0.358,0.564l-0.154,0.308
				l-0.205,0.256c-1.075,1.33-2.253,3.327-3.738,5.272c-0.41,0.512-0.768,1.025-1.127,1.588c-0.205,0.307-0.358,0.615-0.563,0.87
				c-0.205,0.308-0.41,0.564-0.614,0.871c-0.819,1.178-1.638,2.406-2.458,3.789c-0.358,0.716-0.819,1.382-1.28,2.099
				c-0.409,0.666-0.819,1.382-1.28,2.151c-0.409,0.768-0.819,1.535-1.229,2.355c-0.461,0.768-0.922,1.588-1.331,2.406
				c-0.409,0.819-0.87,1.639-1.28,2.509c-0.409,0.87-0.768,1.792-1.229,2.662c-0.87,1.791-1.689,3.686-2.457,5.631
				c-0.359,0.974-0.819,1.946-1.178,2.919c-0.41,1.024-0.768,1.997-1.126,3.072c-0.41,1.075-0.768,2.099-1.075,3.123
				c-0.409,1.075-0.768,2.1-1.126,3.175c-0.358,1.126-0.666,2.201-0.973,3.327c-0.205,0.564-0.307,1.126-0.512,1.69
				c-0.205,0.563-0.358,1.075-0.512,1.637c-0.666,2.254-1.229,4.609-1.792,6.964c-0.154,0.461-0.256,0.921-0.41,1.383
				c-0.103-0.103-0.205-0.256-0.307-0.359v-0.051c-5.53-6.759-0.205-15.974-1.024-23.808c0-0.461-0.102-0.921-0.205-1.382
				c-0.205-1.229-0.614-2.406-1.28-3.481c-0.205-0.307-0.461-0.666-0.717-0.972c-0.154-0.256-0.41-0.564-0.666-0.82
				c-0.154-0.256-0.409-0.46-0.614-0.665c-0.768-0.717-1.587-1.331-2.406-1.741c-0.461-0.256-0.973-0.511-1.434-0.666
				c-0.819-0.306-1.638-0.511-2.509-0.563c-0.256-0.051-0.512-0.103-0.819-0.103c-0.359-0.051-0.768-0.051-1.178-0.051
				c-0.614,0-1.229,0.051-1.894,0.102c-0.666,0.051-1.331,0.154-1.997,0.256c-0.666,0.154-1.331,0.255-1.997,0.41
				c-0.922,0.204-1.843,0.409-2.765,0.614c-0.256,0.051-0.461,0.103-0.716,0.154c-0.871,0.154-1.741,0.357-2.611,0.513
				c-2.099,0.357-4.198,0.511-6.144,0.204c-0.307,0-0.563-0.051-0.768-0.154c-0.87-0.205-1.741-0.46-2.611-0.921
				c-0.922-0.409-1.843-1.075-2.714-1.894c-0.205-0.205-0.461-0.461-0.614-0.666c-0.973-1.024-1.639-2.15-2.048-3.276
				c-0.563-1.229-0.819-2.56-0.87-3.84c-0.154-2.049,0.103-4.199,0.41-6.298c0.256-1.741,0.563-3.482,0.819-5.171
				c7.731-3.021,15.309-5.274,22.477-7.015c4.147-1.024,8.09-1.894,11.878-2.56c1.894-0.359,3.737-0.665,5.478-0.921
				c1.639-0.256,3.379-0.513,5.171-0.768c2.202-0.308,4.25-0.564,6.195-0.717c0.256-0.051,0.512-0.051,0.819-0.103
				c0.717-0.051,1.433-0.103,2.099-0.154c0.512-0.051,1.024-0.103,1.485-0.103c0.307,0,0.666-0.051,0.973-0.051
				c0.461,0,0.922-0.05,1.382-0.103c1.075-0.05,2.048-0.102,2.919-0.102c0.512,0,0.973,0,1.485,0.052h0.614
				c0.41,0,0.768,0.05,1.127,0.103c0.87,0.05,1.587,0.101,2.253,0.204c0.666,0.154,1.177,0.359,1.638,0.615
				c0.409,0.154,0.768,0.359,0.973,0.665c0.153,0.154,0.205,0.308,0.256,0.513C417.843,104.039,417.843,104.141,417.894,104.243z"/>
			<path style="fill:#505E7A;" d="M297.984,250.215c-0.41,0.768-0.922,1.535-1.485,2.253l-0.358,0.46
				c-0.256,0.307-0.563,0.615-0.819,0.871l-2.407,2.355l-1.997,1.946l-1.638,1.637l-0.358,0.308l-6.759,6.605L139.162,405.709
				c-2.765,2.765-6.298,4.25-10.035,4.454c-0.512,0-1.024,0.052-1.536,0.052c-0.819-0.052-1.638-0.103-2.458-0.256
				c-3.635-0.615-7.168-2.356-10.035-5.223l-8.806-8.806l-6.707-6.707c-2.867-2.867-4.608-6.4-5.171-9.984
				c-0.973-5.12,0.41-10.342,4.147-14.08l139.111-143.054l6.605-6.706c0,0,0,0,0-0.051l1.946-1.946l4.301-4.454l0.153-0.154
				l1.434-1.229c6.451-4.864,16.128-3.943,22.477,2.406l8.807,8.806l10.957,10.905C300.032,235.417,301.312,243.865,297.984,250.215
				z"/>
			<path style="opacity:0.2;fill:#040000;" d="M290.918,258.1l-1.638,1.637l-0.358,0.308l-6.759,6.605l-0.205-0.205l-23.091-23.143
				l-21.197-21.198l6.605-6.706c0,0,0,0,0-0.051l1.946-1.946l21.299,21.3L290.918,258.1z"/>
			<path style="fill:#EBE5EF;" d="M332.083,212.378l-2.458,2.56l-11.827,12.544l-21.299,24.986l-0.358,0.46l-5.171,6.042
				c-0.563,0.563-1.28,0.921-2.048,1.075c-0.154,0-0.359,0.051-0.512,0.051c-1.075,0.102-2.15-0.308-2.97-1.126l-21.094-21.095
				l-18.995-18.995c-0.922-0.973-1.331-2.253-1.075-3.481c0,0,0,0,0-0.051c0.154-0.717,0.512-1.434,1.075-1.997l5.171-4.403
				l0.153-0.154l1.434-1.229l24.678-21.044l12.595-11.879l2.56-2.405c0.768-0.769,1.997-0.769,2.765,0l29.747,29.746l7.629,7.629
				C332.851,210.381,332.851,211.61,332.083,212.378z"/>
			<polygon style="opacity:0.2;fill:#040000;" points="329.626,214.938 317.798,227.481 296.243,205.926 276.787,186.521 
				289.383,174.643 308.429,193.741 			"/>
		</g>
		<path style="opacity:0.06;fill:#040000;" d="M417.434,104.243v0.257c0,0.306-0.051,0.768-0.256,1.28
			c-0.103,0.46-0.307,0.768-0.512,1.177c-0.102,0.153-0.205,0.306-0.307,0.46c-0.205,0.359-0.409,0.665-0.563,0.972
			c-0.153,0.205-0.256,0.41-0.358,0.564l-0.154,0.308l-0.205,0.256c-1.075,1.33-2.253,3.327-3.738,5.272
			c-0.358,0.512-0.768,1.025-1.126,1.588c-0.205,0.307-0.358,0.615-0.563,0.87c-0.205,0.308-0.409,0.564-0.614,0.871
			c-0.819,1.178-1.639,2.406-2.458,3.789c-0.358,0.716-0.819,1.382-1.229,2.099c-0.461,0.666-0.871,1.382-1.331,2.151
			c-0.41,0.768-0.819,1.535-1.229,2.355c-0.461,0.768-0.871,1.588-1.331,2.406c-0.41,0.819-0.819,1.639-1.28,2.509
			c-0.41,0.87-0.768,1.792-1.229,2.662c-0.871,1.791-1.69,3.686-2.458,5.631c-0.358,0.974-0.768,1.946-1.178,2.919
			c-0.41,1.024-0.768,1.997-1.126,3.072c-0.41,1.075-0.768,2.099-1.075,3.123c-0.41,1.075-0.768,2.1-1.127,3.175
			c-0.358,1.126-0.665,2.201-0.973,3.327c-0.205,0.564-0.307,1.126-0.512,1.69c-0.153,0.563-0.358,1.075-0.512,1.637
			c-0.666,2.254-1.229,4.609-1.792,6.964c-0.102,0.307-0.205,0.666-0.256,0.973v0.051c-0.051,0.103-0.051,0.256-0.103,0.359
			c-0.409,1.485-0.87,2.97-1.382,4.404c-0.512,1.383-1.178,2.713-1.792,4.095c-0.614,1.383-1.331,2.714-2.099,4.045
			c-1.587,2.663-3.379,5.274-5.478,7.578c-0.922,1.075-1.894,2.049-2.867,3.021c-8.09,7.988-19.354,12.493-30.669,13.056
			c-0.819,0.051-1.638,0.051-2.407,0.051h-0.461c-1.178,0-2.407-0.103-3.584-0.256c-4.352-0.359-8.602-1.434-12.646-3.021
			c-0.205-0.051-0.461-0.154-0.665-0.256l7.833,7.885c0.768,0.769,0.768,1.997,0,2.765l-2.202,2.355l-0.205,0.205l-11.674,12.288
			l-0.205,0.256l-19.354,22.734l-5.069,5.939l-2.406,2.816c-0.358,0.358-0.768,0.614-1.229,0.767
			c-0.205,0.103-0.461,0.154-0.717,0.205l-0.154,0.154l-6.451,6.349l-0.256,0.205L138.701,405.709
			c-2.663,2.663-6.042,4.096-9.574,4.454c-0.512,0-1.024,0.052-1.536,0.052c-0.819,0-1.587-0.052-2.407-0.205
			c-3.789-0.461-7.526-2.253-10.547-5.274l-8.602-8.601l0.256-0.205l2.407-2.408l150.169-150.22l5.478-5.428l3.174-3.174
			l15.872-15.924l12.851-12.851l12.186-12.185l1.433-1.434l56.73-56.73h0.051L399.77,102.4l0.051-0.051
			c0.256,0,0.512-0.051,0.768-0.051c0.563-0.051,1.126-0.103,1.638-0.154h0.461c0.512-0.051,1.024-0.103,1.485-0.103
			c0.307,0,0.666-0.051,0.973-0.051c0.307-0.05,0.614-0.103,0.922-0.103h0.461c1.075-0.05,2.048-0.102,2.919-0.102
			c0.512,0,0.973,0,1.485,0.052c0.205,0,0.461,0,0.666,0.05c0.205,0,0.41,0.053,0.614,0.053c0.871,0.05,1.638,0.101,2.253,0.204
			c0.666,0.154,1.178,0.359,1.638,0.615c0.41,0.154,0.768,0.359,0.973,0.665c0.154,0.154,0.205,0.308,0.256,0.513
			C417.382,104.039,417.434,104.141,417.434,104.243z"/>
	</g>
</g>
</svg>
