<?xml version="1.0" encoding="iso-8859-1"?>
<!-- Generator: Adobe Illustrator 18.0.0, SVG Export Plug-In . SVG Version: 6.00 Build 0)  -->
<!DOCTYPE svg PUBLIC "-//W3C//DTD SVG 1.1//EN" "http://www.w3.org/Graphics/SVG/1.1/DTD/svg11.dtd">
<svg version="1.1" id="_x31_" xmlns="http://www.w3.org/2000/svg" xmlns:xlink="http://www.w3.org/1999/xlink" x="0px" y="0px"
	 viewBox="0 0 512 512" style="enable-background:new 0 0 512 512;" xml:space="preserve">
<g>
	<rect style="fill:#F6B597;" width="512" height="512"/>
	<path style="opacity:0.1;fill:#040000;" d="M512,255.795V512h-206.54L146.432,352.973c-0.051-0.051-0.103-0.051-0.154-0.103
		l-36.147-36.199c-4.864-7.424-8.704-15.206-11.417-23.398c-0.563-1.689-1.075-3.328-1.536-5.017
		c-2.099-7.783-3.226-15.872-3.226-24.116l-0.256-45.209L208.64,103.987c14.951-2.048,30.874-3.123,47.36-3.123
		c13.875,0,27.341,0.768,40.192,2.202c1.997,0.256,3.993,0.461,5.99,0.768c0.051,0,0.154,0,0.205,0.051
		c33.69,4.403,62.823,13.568,83.456,25.754L512,255.795z"/>
	<g>
		<g>
			<path style="fill:#897C55;" d="M350.054,353.894v0.359c0,0.87,0,1.792-0.051,2.663v0.307c-0.051,1.587-0.154,3.174-0.307,4.711
				c0,0.205-0.051,0.461-0.051,0.666c-0.103,0.717-0.154,1.433-0.256,2.151c-0.103,0.716-0.205,1.433-0.358,2.15
				c-0.154,1.024-0.358,2.099-0.614,3.123c-0.819,3.482-1.997,6.861-3.635,10.087c-0.512,1.024-1.075,1.996-1.69,2.969
				c-2.304,3.789-5.376,7.271-9.318,10.444c-6.809,5.479-16.23,9.933-29.286,13.005c-0.051,0-0.051,0-0.051,0
				c-1.434,0.359-2.97,0.666-4.506,0.973c-11.725,2.356-26.112,3.636-43.725,3.636h-2.509c-64-0.461-84.378-18.432-89.958-40.602
				c-0.666-2.56-1.075-5.223-1.383-7.936c-0.256-2.867-0.41-5.786-0.41-8.704c0-14.694,6.554-28.057,17.152-37.785
				c2.918-2.662,6.144-5.069,9.677-7.169c9.114-5.376,19.917-8.55,31.488-8.55h71.475c3.328,0,6.554,0.256,9.677,0.768
				c1.178,0.153,2.304,0.358,3.431,0.614c1.741,0.358,3.43,0.819,5.12,1.331c1.485,0.461,2.969,0.972,4.454,1.536
				C335.309,312.78,350.054,331.827,350.054,353.894z"/>
			<path style="fill:#897C55;" d="M350.049,341.723v0.382c0,0.878-0.019,1.757-0.048,2.626v0.01c0,0.115,0,0.22-0.009,0.334
				c-0.057,1.576-0.153,3.141-0.296,4.698c-0.019,0.22-0.038,0.449-0.067,0.668c-0.076,0.716-0.162,1.432-0.248,2.139
				c-0.105,0.726-0.22,1.451-0.344,2.167c-0.793,4.583-2.129,9.023-4.249,13.205c-0.516,1.002-1.079,2.005-1.68,2.979
				c-2.33,3.752-5.385,7.266-9.348,10.455c-6.779,5.443-16.223,9.911-29.294,12.995c-0.009,0-0.009,0-0.009,0
				c-1.461,0.344-2.97,0.668-4.526,0.974c-0.009,0.01-0.009,0.01-0.019,0c-11.725,2.33-26.095,3.628-43.73,3.628h-0.592
				c0,0,0,0-0.01,0c-0.63,0-1.241,0-1.852-0.01h-0.01c-71.506-0.497-88.616-22.858-91.338-48.524
				c-0.305-2.874-0.429-5.796-0.429-8.727c0-14.704,6.56-28.072,17.129-37.763c2.941-2.693,6.177-5.099,9.682-7.18h0.009
				c9.1-5.395,19.908-8.527,31.49-8.527h71.487c3.294,0,6.521,0.258,9.672,0.745c1.146,0.172,2.272,0.382,3.399,0.621
				c1.747,0.372,3.466,0.811,5.147,1.327c1.508,0.458,2.979,0.964,4.43,1.528C335.297,300.627,350.049,319.666,350.049,341.723z"/>
			<path style="opacity:0.07;fill:#040000;" d="M350.054,353.894v0.359c0,0.87,0,1.792-0.051,2.663v0.307
				c-0.051,1.587-0.154,3.174-0.307,4.711c0,0.205-0.051,0.461-0.051,0.666c-0.103,0.717-0.154,1.433-0.256,2.151
				c-0.103,0.716-0.205,1.433-0.358,2.15c-0.154,1.024-0.358,2.099-0.614,3.123c-2.253,2.765-4.966,5.427-8.243,7.834
				c-7.321,5.427-17.561,9.933-31.795,13.004c-1.587,0.359-3.226,0.666-4.915,0.973c-12.749,2.356-28.313,3.636-47.462,3.636h-2.662
				c-38.81-0.256-62.874-5.991-77.568-14.849c-5.018-3.02-8.96-6.4-12.032-10.086c-0.666-2.56-1.075-5.223-1.383-7.936
				c-0.256-2.867-0.41-5.786-0.41-8.704c0-14.694,6.554-28.057,17.152-37.785c2.918-2.662,6.144-5.069,9.677-7.169
				c9.114-5.376,19.917-8.55,31.488-8.55h71.475c3.328,0,6.554,0.256,9.677,0.768c1.178,0.153,2.304,0.358,3.431,0.614
				c1.741,0.358,3.43,0.819,5.12,1.331c1.485,0.461,2.969,0.972,4.454,1.536C335.309,312.78,350.054,331.827,350.054,353.894z"/>
			<path style="fill:#95875B;" d="M418.56,173.107l-0.256,45.875v0.205l-0.256,44.953c0,29.082-13.824,55.757-36.813,76.595
				c-0.614,0.512-1.229,1.075-1.843,1.587c-8.755,7.68-18.739,14.439-29.747,20.276c-2.714,1.433-5.478,2.816-8.346,4.096
				c-0.614,0.308-1.229,0.564-1.843,0.871c-24.371,10.906-52.941,17.203-83.456,17.203c-34.867,0-67.174-8.192-93.645-22.169
				c-2.406-1.28-4.762-2.611-7.066-3.943c-1.485-0.871-2.918-1.792-4.352-2.714c-1.536-0.973-3.021-1.946-4.506-2.969
				c-0.051-0.051-0.103-0.051-0.154-0.103c-14.95-10.24-27.289-22.477-36.147-36.199c-4.864-7.424-8.704-15.206-11.417-23.398
				c-0.563-1.689-1.075-3.328-1.536-5.017c-2.099-7.783-3.226-15.872-3.226-24.116l-0.256-45.209l-0.256-45.824
				c0-32.563,48.538-60.109,115.2-69.12c14.951-2.048,30.874-3.123,47.36-3.123c13.875,0,27.341,0.768,40.192,2.202
				c1.997,0.256,3.993,0.461,5.99,0.768c0.051,0,0.154,0,0.205,0.051c33.69,4.403,62.823,13.568,83.456,25.754
				c14.643,8.652,25.037,18.739,29.747,29.747C417.536,163.84,418.56,168.396,418.56,173.107z"/>
			<path style="fill:#95875B;" d="M418.56,173.107l-0.256,45.875v0.205l-0.256,44.953c0,29.082-13.824,55.757-36.813,76.595
				c-0.614,0.512-1.229,1.075-1.843,1.587c-8.755,7.68-18.739,14.439-29.747,20.276c-2.714,1.433-5.478,2.816-8.346,4.096
				c-0.614,0.308-1.229,0.564-1.843,0.871c-24.371,10.906-52.941,17.203-83.456,17.203c-34.867,0-67.174-8.192-93.645-22.169
				c-2.406-1.28-4.762-2.611-7.066-3.943c-1.485-0.871-2.918-1.792-4.352-2.714c-1.536-0.973-3.021-1.946-4.506-2.969
				c-0.051-0.051-0.103-0.051-0.154-0.103c-14.95-10.24-27.289-22.477-36.147-36.199c-4.864-7.424-8.704-15.206-11.417-23.398
				c-0.563-1.689-1.075-3.328-1.536-5.017c-2.099-7.783-3.226-15.872-3.226-24.116l-0.256-45.209l-0.256-45.824
				c0-32.563,48.538-60.109,115.2-69.12c14.951-2.048,30.874-3.123,47.36-3.123c13.875,0,27.341,0.768,40.192,2.202
				c1.997,0.256,3.993,0.461,5.99,0.768c0.051,0,0.154,0,0.205,0.051c33.69,4.403,62.823,13.568,83.456,25.754
				c14.643,8.652,25.037,18.739,29.747,29.747C417.536,163.84,418.56,168.396,418.56,173.107z"/>
			<g>
				<ellipse style="fill:#6B7779;" cx="256.003" cy="178.199" rx="140.89" ry="65.023"/>
				<path style="opacity:0.2;fill:#040000;" d="M350.063,226.616c-24.938,10.329-57.919,16.611-94.063,16.611
					c-36.144,0-69.116-6.282-94.054-16.611c24.938-10.338,57.911-16.62,94.054-16.62
					C292.143,209.996,325.125,216.278,350.063,226.616z"/>
			</g>
			<path style="fill:#E8DFBA;" d="M354.587,299.811c0.28-0.164,1.146-0.589,2.861-1.431
				C356.286,298.918,354.968,299.599,354.587,299.811z"/>
			<path style="fill:#E8DFBA;" d="M357.512,298.317c-0.016,0.024-0.048,0.024-0.064,0.064c0.032-0.04,0.064-0.064,0.128-0.064
				C357.549,298.317,357.549,298.317,357.512,298.317z"/>
			<path style="fill:#E8DFBA;" d="M357.512,249.887C364.963,251.618,357.877,244.508,357.512,249.887L357.512,249.887z"/>
			<path style="fill:#E8DFBA;" d="M343.181,253.494c-3.96-2.942-9.903,0.2-5.379,3.575
				C337.818,254.119,342.768,256.067,343.181,253.494z"/>
			<path style="fill:#E8DFBA;" d="M312.674,300.128c-1.912,3.462-6.071,4.681-8.961,7.182c4.417,0.212,8.645,0.264,10.765-1.811
				C314.197,303.39,314.774,300.401,312.674,300.128z"/>
			<path style="fill:#E8DFBA;" d="M328.809,258.864C329.991,260.047,328.072,258.111,328.809,258.864L328.809,258.864z"/>
			<path style="fill:#E8DFBA;" d="M285.766,257.069c-1.146,3.63-8.376,1.182-8.957,5.39
				C280.668,262.559,291.221,260.363,285.766,257.069z"/>
			<path style="fill:#E8DFBA;" d="M158.424,303.703c2.668,2.837,7.321,1.322,8.957-1.795
				C164.776,302.901,158.111,299.823,158.424,303.703z"/>
			<path style="fill:#E8DFBA;" d="M156.632,314.467c2.373,2.324,6.665,2.365,7.166-1.795
				C161.125,312.977,157.181,312.031,156.632,314.467z"/>
			<path style="fill:#E8DFBA;" d="M178.145,258.864C185.6,260.575,178.51,253.494,178.145,258.864L178.145,258.864z"/>
			<path style="fill:#E8DFBA;" d="M188.914,309.082C188.157,308.34,190.076,310.259,188.914,309.082L188.914,309.082z"/>
			<path style="fill:#E8DFBA;" d="M381.214,340.716c-0.592,0.544-1.203,1.089-1.814,1.614
				C379.801,341.756,380.46,341.184,381.214,340.716z"/>
			<path style="opacity:0.2;fill:#E8DFBA;" d="M349.381,364.739c-0.105,0.726-0.22,1.451-0.344,2.167
				c-0.897,0.917-2.196,1.432-4.068,1.385C344.215,364.882,346.822,364.815,349.381,364.739z"/>
			<path style="fill:#E8DFBA;" d="M348.551,303.703C358.062,305.651,350.679,298.252,348.551,303.703L348.551,303.703z"/>
			<path style="fill:#E8DFBA;" d="M371.876,280.394c-4.568,0.224-6.961,2.597-7.178,7.174
				C370.305,288.393,372.694,286.008,371.876,280.394z"/>
			<path style="fill:#E8DFBA;" d="M361.112,292.954C363.724,298.894,365.576,285.944,361.112,292.954L361.112,292.954z"/>
			<path style="fill:#E8DFBA;" d="M359.32,348.542C366.759,350.277,359.685,343.167,359.32,348.542L359.32,348.542z"/>
			<path style="fill:#E8DFBA;" d="M199.27,339.316C206.717,341.04,199.647,333.966,199.27,339.316L199.27,339.316z"/>
			<path style="opacity:0.2;fill:#E8DFBA;" d="M192.105,387.762C199.555,389.453,192.465,382.384,192.105,387.762L192.105,387.762z"
				/>
			<path style="fill:#E8DFBA;" d="M118.566,285.509c-4.088-0.497-6.741,0.441-7.186,3.595
				C115.481,289.592,118.142,288.662,118.566,285.509z"/>
			<path style="fill:#E8DFBA;" d="M165.197,346.491c-1.351,6.116,6.849,6.993,7.182,1.807
				C169.958,347.717,168.956,345.737,165.197,346.491z"/>
			<path style="fill:#E8DFBA;" d="M156.239,269.357c0.264-0.185,0.473-0.313,0.661-0.437c-0.332,0.224-0.773,0.501-1.242,0.813
				C155.85,269.61,156.035,269.51,156.239,269.357z"/>
			<path style="fill:#E8DFBA;" d="M387.701,263.793c-3.078-0.116-4.589,1.379-5.379,3.575
				C385.152,267.192,388.551,267.609,387.701,263.793z"/>
			<path style="fill:#E8DFBA;" d="M99.123,293.171c-0.154,0-0.307,0.051-0.41,0.102c-0.563-1.689-1.075-3.328-1.536-5.017
				C98.714,289.024,99.328,290.662,99.123,293.171z"/>
			<path style="fill:#E8DFBA;" d="M371.562,319.381C374.187,325.333,376.022,312.4,371.562,319.381L371.562,319.381z"/>
			<path style="opacity:0.2;fill:#E8DFBA;" d="M344.788,380.111c-0.516,1.002-1.079,2.005-1.68,2.979
				c-0.726-0.487-1.451-1.346-2.043-2.721C342.649,380.073,343.871,380.016,344.788,380.111z"/>
			<path style="fill:#E8DFBA;" d="M132.91,251.434c3.334-0.249,5.992-1.179,7.174-3.603
				C136.922,248.236,131.107,246.024,132.91,251.434z"/>
			<path style="opacity:0.2;fill:#E8DFBA;" d="M262.362,391.802C264.991,397.742,266.831,384.805,262.362,391.802L262.362,391.802z"
				/>
			<path style="fill:#E8DFBA;" d="M211.925,326.563C211.168,325.81,213.099,327.745,211.925,326.563L211.925,326.563z"/>
			<path style="fill:#E8DFBA;" d="M281.934,286.851c-10.613,5.11-20.279,0.878-21.529,16.136
				C264.204,294.221,278.303,295.764,281.934,286.851z"/>
			<path style="fill:#E8DFBA;" d="M206.456,310.605c-1.936,4.657-14.885-1.707-12.561,7.182
				C202.276,321.077,211.501,309.146,206.456,310.605z"/>
			<path style="fill:#E8DFBA;" d="M260.272,355.451c-1.214,0-2.4,0-3.598,0c0,1.211,0,2.401,0,3.583c1.198,0,2.384,0,3.598,0
				C260.272,357.852,260.272,356.662,260.272,355.451z"/>
			<path style="fill:#E8DFBA;" d="M254.882,263.97C254.124,263.217,256.056,265.149,254.882,263.97L254.882,263.97z"/>
			<path style="fill:#E8DFBA;" d="M262.051,341.096c-2.861,5.002,7.763,4.962,7.174,1.811
				C266.809,342.342,265.803,340.342,262.051,341.096z"/>
			<path style="fill:#E8DFBA;" d="M240.546,360.842c1.086,0.088,2.12,0.264,1.779,1.784c1.202,0,2.401,0,3.595,0
				C248.706,358.217,239.824,357.351,240.546,360.842z"/>
			<path style="fill:#E8DFBA;" d="M107.892,274.542c-3.447,0.754-7.739,0.653-7.19,5.386
				C104.148,279.175,108.424,279.263,107.892,274.542z"/>
			<path style="fill:#E8DFBA;" d="M238.743,366.217C241.363,372.171,243.207,359.223,238.743,366.217L238.743,366.217z"/>
			<path style="fill:#E8DFBA;" d="M244.113,276.531c-4.497-0.289-5.615,2.75-7.166,5.398c2.405,0,4.782,0,7.166,0
				C244.113,280.122,244.113,278.327,244.113,276.531z"/>
			<path style="fill:#E8DFBA;" d="M111.619,224.582c1.355-6.116-6.837-6.993-7.182-1.795
				C106.87,223.364,107.88,225.336,111.619,224.582z"/>
			<path style="fill:#E8DFBA;" d="M418.447,219.003C406.949,216.919,414.503,224.478,418.447,219.003L418.447,219.003z"/>
			<path style="fill:#E8DFBA;" d="M382.475,226.366c-0.573,4.196-7.823,1.743-8.953,5.39c3.567,0,7.161,0,10.749,0
				C383.986,229.632,384.583,226.666,382.475,226.366z"/>
			<path style="fill:#E8DFBA;" d="M393.24,229.961C400.691,231.692,393.605,224.582,393.24,229.961L393.24,229.961z"/>
			<path style="fill:#E8DFBA;" d="M224.391,342.907C231.837,344.614,224.748,337.545,224.391,342.907L224.391,342.907z"/>
			<path style="fill:#E8DFBA;" d="M211.831,255.017c-2.28-0.104-2.469-2.3-5.379-1.795
				C203.671,257.639,212.552,258.496,211.831,255.017z"/>
			<path style="fill:#E8DFBA;" d="M219.012,326.772C209.911,321.883,212.344,333.024,219.012,326.772L219.012,326.772z"/>
			<path style="fill:#E8DFBA;" d="M255.58,411.143c-0.63,0-1.241,0-1.852-0.01C254.253,410.646,254.997,410.78,255.58,411.143z"/>
			<path style="fill:#E8DFBA;" d="M136.587,276.35C132.271,282.353,142.591,272.005,136.587,276.35L136.587,276.35z"/>
			<path style="fill:#E8DFBA;" d="M236.881,313.013c0.076-0.453,0.172-0.877,0.236-1.206c-0.016,0.129-0.048,0.249-0.08,0.401
				C236.973,312.496,236.921,312.76,236.881,313.013z"/>
			<path style="fill:#E8DFBA;" d="M237.037,287.103C246.548,289.051,239.142,281.636,237.037,287.103L237.037,287.103z"/>
			<path style="fill:#E8DFBA;" d="M242.416,326.563c-1.795,0.016-2.144-1.443-3.583-1.796c0.016,1.811-1.463,2.136-1.796,3.584
				c1.811,0,2.132,1.467,3.584,1.803C240.621,328.351,242.083,328.006,242.416,326.563z"/>
			<path style="fill:#E8DFBA;" d="M358.911,321.378C354.59,327.381,364.935,317.033,358.911,321.378L358.911,321.378z"/>
			<path style="opacity:0.2;fill:#E8DFBA;" d="M228.076,405.492C235.527,407.211,228.425,400.113,228.076,405.492L228.076,405.492z"
				/>
			<path style="fill:#E8DFBA;" d="M292.539,303.447c-0.706,3.451-6.93,1.403-5.358,7.158
				C292.711,312.953,297.344,305.515,292.539,303.447z"/>
			<path style="fill:#E8DFBA;" d="M158.113,355.267c-0.249,1.814-1.232,2.893-2.817,3.38c-1.48-0.879-2.941-1.766-4.382-2.683
				C152.03,354.446,155.773,355.563,158.113,355.267z"/>
			<path style="opacity:0.2;fill:#E8DFBA;" d="M283.593,400.306c-4.596,0.184-8.544,1.002-10.776,3.579
				C276.519,402.807,285.276,406.783,283.593,400.306z"/>
			<path style="fill:#E8DFBA;" d="M279.999,253.206C281.161,254.384,279.261,252.452,279.999,253.206L279.999,253.206z"/>
			<path style="fill:#E8DFBA;" d="M283.593,321.378c-0.043-0.036-0.028-0.025-0.06-0.061c0.112,0.125,0.268,0.261,0.364,0.377
				C283.829,321.63,283.737,321.518,283.593,321.378z"/>
			<path style="fill:#E8DFBA;" d="M237.037,335.52c-2.468,0.1-3.932-0.83-5.394-1.771c0,2.372,0,4.773,0,7.157
				C235.575,341.247,237.37,339.435,237.037,335.52z"/>
			<path style="opacity:0.2;fill:#E8DFBA;" d="M213.709,405.492c3.274,3.286,10.063,0.937,12.564-1.811
				C219.448,405.652,215.079,398.947,213.709,405.492z"/>
			<path style="fill:#E8DFBA;" d="M272.817,335.725C280.279,337.441,273.173,330.346,272.817,335.725L272.817,335.725z"/>
			<path style="fill:#E8DFBA;" d="M201.066,251.434c-3.126,1.635-9.623-0.089-8.958,5.35
				C197.242,257.149,201.879,257.021,201.066,251.434z"/>
			<path style="fill:#E8DFBA;" d="M408.052,176.235c2.188,6.52-11.963,5.775-5.374,10.777
				C403.247,183.228,414.72,181.297,408.052,176.235z"/>
			<path style="fill:#E8DFBA;" d="M391.647,156.417c3.082,0.08,4.589-1.403,5.375-3.602
				C393.928,152.715,392.421,154.197,391.647,156.417z"/>
			<path style="fill:#E8DFBA;" d="M221.662,110.148C229.112,111.868,222.01,104.774,221.662,110.148L221.662,110.148z"/>
			<path style="fill:#E8DFBA;" d="M129.993,143.122c-4.665-3.327-14.568,0.048-17.947,3.583
				C115.849,147.178,127.688,151.514,129.993,143.122z"/>
			<path style="fill:#E8DFBA;" d="M285.521,104.603C284.091,115.456,293.753,105.797,285.521,104.603L285.521,104.603z"/>
			<path style="fill:#E8DFBA;" d="M111.623,194.088C107.282,200.103,117.638,189.755,111.623,194.088L111.623,194.088z"/>
			<path style="fill:#E8DFBA;" d="M302.387,103.885c-0.87,1.894-2.509,3.021-5.99,2.304c0.205-1.178,0.205-2.202,0.051-3.021
				c1.946,0.205,3.84,0.461,5.734,0.666C302.234,103.833,302.336,103.833,302.387,103.885z"/>
			<path style="fill:#E8DFBA;" d="M164.08,122.352c-3.399,0.781-10.829-2.461-8.978,3.583
				C159.551,126.184,163.815,126.26,164.08,122.352z"/>
			<path style="fill:#E8DFBA;" d="M108.131,166.982C117.652,168.938,110.251,161.531,108.131,166.982L108.131,166.982z"/>
			<path style="fill:#E8DFBA;" d="M411.171,161.813C418.629,163.532,411.536,156.423,411.171,161.813L411.171,161.813z"/>
			<path style="fill:#E8DFBA;" d="M190.854,237.596C193.479,243.547,195.323,230.626,190.854,237.596L190.854,237.596z"/>
			<path style="fill:#E8DFBA;" d="M366.188,328.351c-1.844,2.357-1.76,6.616-3.599,8.977c6.116,1.318,2.97-6.62,7.182-7.174
				c1.403-0.401,3.535-0.049,3.599-1.803C370.964,328.351,368.576,328.351,366.188,328.351z"/>
			<path style="opacity:0.2;fill:#E8DFBA;" d="M238.833,401.909c-1.198,0-2.393,0-3.587,0c0,1.182,0,2.372,0,3.583
				c1.194,0,2.389,0,3.587,0C238.833,404.281,238.833,403.091,238.833,401.909z"/>
			<path style="fill:#E8DFBA;" d="M294.437,261.994c-4.325,0.741-3.9-3.29-8.974-1.807
				C285.227,265.309,294.565,267.056,294.437,261.994z"/>
			<path style="fill:#E8DFBA;" d="M305.116,355.455C300.771,361.487,311.135,351.123,305.116,355.455L305.116,355.455z"/>
			<path style="opacity:0.2;fill:#E8DFBA;" d="M306.901,402.101c0.02,1.986-0.983,3.514-2.435,4.44c0,0.01-0.009,0-0.009,0
				c-1.461,0.344-2.97,0.668-4.526,0.974c-0.009,0.009-0.009,0.009-0.019,0c-1.375-0.172-2.721-0.764-3.771-1.824
				C298.355,403.122,302.318,402.282,306.901,402.101z"/>
			<path style="fill:#E8DFBA;" d="M376.878,283.713C379.471,289.656,381.323,276.719,376.878,283.713L376.878,283.713z"/>
			<path style="fill:#E8DFBA;" d="M187.817,278.955c-4.068-0.506-6.725,0.424-7.165,3.579
				C183.821,282.145,189.636,284.341,187.817,278.955z"/>
			<path style="fill:#E8DFBA;" d="M339.206,294.477c5.547-0.424,6.961-4.997,10.748-7.182
				C343.493,286.807,337.554,286.854,339.206,294.477z"/>
			<path style="fill:#E8DFBA;" d="M391.214,298.061c-0.93,2.661-2.657,4.528-3.587,7.17c3.992,0.79,9.726,4.132,10.752-1.771
				C393.679,303.976,396.981,296.49,391.214,298.061z"/>
			<path style="fill:#E8DFBA;" d="M371.484,290.886C378.938,292.61,371.848,285.524,371.484,290.886L371.484,290.886z"/>
			<path style="fill:#E8DFBA;" d="M409.145,253.222c1.194,0,2.404,0,3.598,0c0-1.194,0-2.401,0-3.583c-1.194,0-2.404,0-3.598,0
				C409.145,250.821,409.145,252.028,409.145,253.222z"/>
			<path style="fill:#E8DFBA;" d="M297.93,256.813c0,1.194,0,2.397,0,3.579c1.206,0,2.389,0,3.583,0c0-1.182,0-2.384,0-3.579
				C300.318,256.813,299.135,256.813,297.93,256.813z"/>
			<path style="opacity:0.2;fill:#E8DFBA;" d="M269.246,394.932c1.779,0,3.584,0,5.374,0c-0.264-2.112,0.317-5.102-1.791-5.39
				C272.392,392.107,269.875,392.571,269.246,394.932z"/>
			<path style="fill:#E8DFBA;" d="M297.93,312.416c6.997-0.192,6.569-7.803,7.186-14.356
				C301.047,300.906,294.331,307.491,297.93,312.416z"/>
			<path style="fill:#E8DFBA;" d="M315.88,263.982C321.33,268.884,310.995,258.532,315.88,263.982L315.88,263.982z"/>
			<path style="fill:#E8DFBA;" d="M308.698,364.437C314.309,370.289,311.712,358.092,308.698,364.437L308.698,364.437z"/>
			<path style="fill:#E8DFBA;" d="M296.138,357.251C291.798,363.267,302.162,352.931,296.138,357.251L296.138,357.251z"/>
			<path style="fill:#E8DFBA;" d="M301.512,373.39c-4.713-0.529-4.605,3.744-5.375,7.186
				C300.979,380.452,304.767,376.481,301.512,373.39z"/>
			<path style="opacity:0.2;fill:#E8DFBA;" d="M317.671,396.716c-1.097-0.529-6.913-4.457-7.17,0
				C313.832,395.008,316.489,402.102,317.671,396.716z"/>
			<path style="fill:#E8DFBA;" d="M283.896,364.887c-4.136,0.569-1.995-5.187-5.39-5.375c-0.565,2.436-2.548,3.426-1.775,7.186
				C279.408,366.385,283.327,367.323,283.896,364.887z"/>
			<path style="fill:#E8DFBA;" d="M256.764,287.103C257.942,288.268,256.007,286.349,256.764,287.103L256.764,287.103z"/>
			<path style="fill:#E8DFBA;" d="M389.422,283.7c-0.272,2.12-3.206,4.068,0,5.391C389.671,286.967,392.613,285.019,389.422,283.7z"
				/>
			<path style="fill:#E8DFBA;" d="M353.489,341.072c0.116,0.088,0.268,0.252,0.364,0.341c-0.06-0.06-0.177-0.149-0.313-0.317
				C353.509,341.087,353.525,341.087,353.489,341.072z"/>
			<path style="fill:#E8DFBA;" d="M357.436,337.809c-0.112-0.08-0.249-0.228-0.365-0.341c0.036,0.012,0.036,0.012,0.048,0.052
				C357.276,337.669,357.388,337.745,357.436,337.809z"/>
			<path style="fill:#E8DFBA;" d="M296.232,396.522C295.471,395.769,297.406,397.701,296.232,396.522L296.232,396.522z"/>
			<path style="fill:#E8DFBA;" d="M321.254,366.217C330.764,368.164,323.378,360.782,321.254,366.217L321.254,366.217z"/>
			<path style="fill:#E8DFBA;" d="M310.786,379.089c-0.044-0.06-0.16-0.177-0.296-0.313c-0.032-0.036-0.032-0.036-0.048-0.048
				C310.553,378.84,310.694,378.993,310.786,379.089z"/>
			<path style="fill:#E8DFBA;" d="M104.285,288.886C105.467,290.068,103.547,288.145,104.285,288.886L104.285,288.886z"/>
			<g style="opacity:0.6;">
				<path style="fill:#555659;" d="M277.047,212.294C284.493,214.006,277.408,206.924,277.047,212.294L277.047,212.294z"/>
				<path style="fill:#555659;" d="M393.546,156.872C392.789,156.13,394.72,158.054,393.546,156.872L393.546,156.872z"/>
				<path style="fill:#555659;" d="M228.602,242.777c1.206,0,2.393,0,3.587,0c0-1.194,0-2.384,0-3.575c-1.194,0-2.381,0-3.587,0
					C228.602,240.393,228.602,241.583,228.602,242.777z"/>
				<path style="fill:#555659;" d="M323.677,129.778c-2.813-0.942-9.607-6.921-12.556-1.795c7.242-2.465,6.348,3.227,8.973,5.398
					C320.107,131.009,323.232,131.727,323.677,129.778z"/>
				<path style="fill:#555659;" d="M343.117,211.833C348.616,210.551,327.038,215.54,343.117,211.833L343.117,211.833z"/>
				<path style="fill:#555659;" d="M154.666,206.636C155.848,207.814,153.933,205.882,154.666,206.636L154.666,206.636z"/>
				<path style="fill:#555659;" d="M129.557,147.453C130.736,148.619,128.82,146.688,129.557,147.453L129.557,147.453z"/>
				<path style="fill:#555659;" d="M210.597,241.199c0.188-3.402,5.924-1.243,5.39-5.386
					C211.43,233.917,205.735,239.596,210.597,241.199z"/>
				<path style="fill:#555659;" d="M296.38,231.756C297.554,232.923,295.623,231.003,296.38,231.756L296.38,231.756z"/>
				<path style="fill:#555659;" d="M273.142,210.034c0.288,2.112-0.297,5.09,1.791,5.39
					C276.031,213.741,279.113,208.791,273.142,210.034z"/>
				<path style="fill:#555659;" d="M220.698,146.287c0.081-0.552,0.188-1.331,0.365-2.412
					C221.66,139.606,221.015,144.102,220.698,146.287z"/>
				<path style="fill:#555659;" d="M222.834,212.022c-2.372,3.006-4.745,6.004-3.583,12.561
					C223.981,224.999,225.916,213.505,222.834,212.022z"/>
				<path style="fill:#555659;" d="M194.782,174.575C192.878,184.987,202.545,175.305,194.782,174.575L194.782,174.575z"/>
				<path style="fill:#555659;" d="M133.243,150.843C140.693,152.562,133.587,145.469,133.243,150.843L133.243,150.843z"/>
				<path style="fill:#555659;" d="M253.329,194.088c-2.689,0.288-6.633-0.653-7.17,1.783
					C248.848,195.57,252.775,196.512,253.329,194.088z"/>
				<path style="fill:#555659;" d="M264.094,197.682C264.078,207.1,271.641,199.55,264.094,197.682L264.094,197.682z"/>
				<path style="fill:#555659;" d="M351.984,190.497c-3.098-0.089-4.585,1.367-5.391,3.591
					C349.692,194.176,351.199,192.692,351.984,190.497z"/>
				<path style="fill:#555659;" d="M282.024,160.001C289.483,161.721,282.405,154.623,282.024,160.001L282.024,160.001z"/>
				<path style="fill:#555659;" d="M280.237,185.106C289.751,187.053,282.341,179.671,280.237,185.106L280.237,185.106z"/>
				<path style="fill:#555659;" d="M366.426,140.078C359.917,148.547,376.922,142.455,366.426,140.078L366.426,140.078z"/>
				<path style="fill:#555659;" d="M361.048,240.533C362.23,241.699,360.283,239.763,361.048,240.533L361.048,240.533z"/>
				<path style="fill:#555659;" d="M389.739,195.678C388.97,194.924,390.93,196.864,389.739,195.678L389.739,195.678z"/>
				<path style="fill:#555659;" d="M371.71,179.731c-4.685-0.501-7.715,0.653-7.166,5.375
					C367.987,184.352,372.259,184.48,371.71,179.731z"/>
				<path style="fill:#555659;" d="M373.522,165.376c1.784,0,3.567,0,5.386,0C380.339,156.41,373.626,161.167,373.522,165.376z"/>
				<path style="fill:#555659;" d="M262.393,175.952c-4.906,2.885,2.625,6.011,3.583,1.795
					C264.168,177.747,263.836,176.288,262.393,175.952z"/>
				<path style="fill:#555659;" d="M298.168,134.909c-1.792,0-3.584,0-5.363,0c0,1.784,0,3.579,0,5.374
					C296.705,140.612,298.501,138.8,298.168,134.909z"/>
				<path style="fill:#555659;" d="M373.514,179.735C380.965,181.455,373.862,174.373,373.514,179.735L373.514,179.735z"/>
				<path style="fill:#555659;" d="M216.115,151.108c-2.814,0.177-6.208-0.225-5.391,3.595
					C213.819,154.791,215.33,153.32,216.115,151.108z"/>
				<path style="fill:#555659;" d="M240.773,212.022c-0.253,0.257,0.136,1.447,0,1.8
					C236.761,224.534,249.951,202.856,240.773,212.022z"/>
				<path style="fill:#555659;" d="M287.415,219.212C296.942,221.144,289.539,213.746,287.415,219.212L287.415,219.212z"/>
				<path style="fill:#555659;" d="M274.859,194.092c1.194,0,2.388,0,3.587,0c0-1.194,0-2.389,0-3.584c-1.198,0-2.393,0-3.587,0
					C274.859,191.702,274.859,192.898,274.859,194.092z"/>
				<path style="fill:#555659;" d="M276.646,151.048C284.101,152.755,277.011,145.669,276.646,151.048L276.646,151.048z"/>
				<path style="fill:#555659;" d="M321.494,203.056c9.334,1.543,7.482-8.063,10.765-12.548
					C325.432,191.455,323.71,197.494,321.494,203.056z"/>
				<path style="fill:#555659;" d="M255.207,235.154c3.01-2.396,11.41,0.642,10.769-5.398
					C260.501,229.668,256.846,231.403,255.207,235.154z"/>
				<path style="fill:#555659;" d="M291.076,161.604c4.385-1.018,9.242-1.531,8.989-7.17
					C294.803,154.558,289.942,155.075,291.076,161.604z"/>
				<path style="fill:#555659;" d="M230.02,199.45c3.174-0.401,8.977,1.835,7.165-3.579
					C233.102,195.382,230.441,196.312,230.02,199.45z"/>
			</g>
			<path style="fill:#E8DFBA;" d="M204.643,341.66c0.064-0.377,0.108-0.725,0.16-1.066c-0.02,0.101-0.036,0.213-0.052,0.313
				C204.707,341.183,204.679,341.408,204.643,341.66z"/>
			<path style="fill:#E8DFBA;" d="M373.369,256.603C369.029,262.623,379.389,252.275,373.369,256.603L373.369,256.603z"/>
			<path style="fill:#E8DFBA;" d="M308.784,321.189c4.465,0.264,7.455-0.93,8.978-3.579
				C313.297,317.333,309.049,317.257,308.784,321.189z"/>
			<path style="fill:#E8DFBA;" d="M324.927,357.07c0.129,3.118-0.405,5.567-1.791,7.161
				C328.118,367.098,328.106,356.493,324.927,357.07z"/>
			<path style="fill:#E8DFBA;" d="M178.059,352.326C185.505,354.061,178.42,346.964,178.059,352.326L178.059,352.326z"/>
			<path style="fill:#E8DFBA;" d="M168.799,330.346C163.89,335.785,174.233,325.45,168.799,330.346L168.799,330.346z"/>
			<path style="fill:#E8DFBA;" d="M253.405,323.654C256.018,329.593,257.869,316.632,253.405,323.654L253.405,323.654z"/>
		</g>
		<path style="opacity:0.07;fill:#040000;" d="M418.304,218.982h0.154c-0.051,0.102-0.102,0.102-0.154,0.154v0.051l-0.256,44.953
			c0,29.082-13.824,55.757-36.813,76.595c-0.614,0.512-1.229,1.075-1.843,1.587c-8.755,7.68-18.739,14.439-29.747,20.276
			c-0.103,0.717-0.154,1.433-0.256,2.151c-0.103,0.716-0.205,1.433-0.358,2.15c-0.768,4.608-2.099,9.011-4.25,13.21
			c-0.512,1.024-1.075,1.996-1.69,2.969c-2.304,3.789-5.376,7.271-9.318,10.444c-6.809,5.479-16.23,9.933-29.286,13.005
			c-0.051,0-0.051,0-0.051,0c-1.434,0.359-2.97,0.666-4.506,0.973c-11.725,2.356-26.112,3.636-43.725,3.636H256V100.864
			c13.875,0,27.341,0.768,40.192,2.202c1.997,0.256,3.993,0.461,5.99,0.768c0.051,0,0.154,0,0.205,0.051
			c33.69,4.403,62.823,13.568,83.456,25.754c14.643,8.652,25.037,18.739,29.747,29.747c1.946,4.454,2.969,9.011,2.969,13.722
			L418.304,218.982z"/>
	</g>
</g>
</svg>
